<svg width="16" height="16" viewBox="0 0 16 16" fill="none" xmlns="http://www.w3.org/2000/svg">
<path d="M7.99998 3.26314C5.81528 3.26314 4.05263 5.01644 4.05263 7.16894C4.05263 7.6442 4.26165 8.23462 4.64138 8.88993C5.01513 9.5349 5.52369 10.1909 6.05148 10.7841C6.57791 11.3757 7.11293 11.8929 7.53044 12.2598C7.71826 12.4248 7.87827 12.5559 7.99998 12.6482C8.12168 12.5559 8.2817 12.4248 8.46952 12.2598C8.88703 11.8929 9.42205 11.3757 9.94848 10.7841C10.4763 10.1909 10.9848 9.5349 11.3586 8.88993C11.7383 8.23462 11.9473 7.6442 11.9473 7.16894C11.9473 5.01644 10.1847 3.26314 7.99998 3.26314ZM3 7.16894C3 4.42585 5.24321 2.21051 7.99998 2.21051C10.7568 2.21051 13 4.42585 13 7.16894C13 7.91757 12.6847 8.70086 12.2693 9.4177C11.848 10.1449 11.2905 10.8594 10.7348 11.4838C10.1778 12.1098 9.6119 12.6572 9.16438 13.0504C8.94115 13.2466 8.74239 13.4089 8.58521 13.525C8.50766 13.5823 8.4323 13.6342 8.36461 13.6743C8.33133 13.6941 8.29053 13.7165 8.24622 13.7357L8.24578 13.7359C8.21768 13.748 8.12193 13.7894 7.99998 13.7894C7.87803 13.7894 7.78227 13.748 7.75417 13.7359L7.75374 13.7357C7.70943 13.7165 7.66863 13.6941 7.63535 13.6743C7.56766 13.6342 7.4923 13.5823 7.41475 13.525C7.25757 13.4089 7.05881 13.2466 6.83558 13.0504C6.38806 12.6572 5.82214 12.1098 5.26511 11.4838C4.70944 10.8594 4.152 10.1449 3.73062 9.4177C3.31524 8.70086 3 7.91757 3 7.16894ZM7.99998 5.7562C7.35949 5.7562 6.84867 6.2693 6.84867 6.89193C6.84867 7.51456 7.35949 8.02766 7.99998 8.02766C8.64047 8.02766 9.15129 7.51456 9.15129 6.89193C9.15129 6.2693 8.64047 5.7562 7.99998 5.7562ZM5.79604 6.89193C5.79604 5.67872 6.78742 4.70357 7.99998 4.70357C9.21254 4.70357 10.2039 5.67872 10.2039 6.89193C10.2039 8.10515 9.21254 9.08029 7.99998 9.08029C6.78742 9.08029 5.79604 8.10515 5.79604 6.89193Z" fill="black" fill-opacity="0.5"/>
</svg>
