<svg width="16" height="16" viewBox="0 0 16 16" fill="none" xmlns="http://www.w3.org/2000/svg">
<path fill-rule="evenodd" clip-rule="evenodd" d="M8.0001 2C8.43473 2 8.81959 2.28073 8.95232 2.69459L9.85212 5.5H12.7554C13.1905 5.5 13.5756 5.78133 13.708 6.1958C13.8403 6.61027 13.6895 7.06275 13.335 7.31492L11.007 8.97053L11.9449 11.672C12.087 12.0813 11.9493 12.5356 11.604 12.7972C11.2586 13.0587 10.784 13.0682 10.4285 12.8205L8.00012 11.1286L5.57186 12.8205C5.21638 13.0682 4.74185 13.0588 4.39646 12.7972C4.05108 12.5356 3.91342 12.0814 4.05548 11.6721L4.99319 8.97056L2.66525 7.31492C2.31068 7.06275 2.15986 6.61027 2.29221 6.1958C2.42457 5.78133 2.80973 5.5 3.24482 5.5H6.14809L7.04788 2.69459C7.18062 2.28073 7.56548 2 8.0001 2ZM6.87753 6.5H4.97023H3.24482L4.65089 7.5L6.18375 8.59017L5.55818 10.3924L5.00019 12L6.39637 11.0272L8.0001 9.90983L9.60395 11.0272L11.0002 12L10.4421 10.3924L9.81646 8.59017L11.3493 7.5L12.7554 6.5H11.03H9.12267L8.52519 4.63714L8.0001 3L7.47502 4.63714L6.87753 6.5Z" fill="black" fill-opacity="0.5"/>
</svg>
