<svg width="24" height="24" viewBox="0 0 24 24" fill="none" xmlns="http://www.w3.org/2000/svg">
<path fill-rule="evenodd" clip-rule="evenodd" d="M4.02718 17.6711C3.92099 18.3082 4.12903 18.9574 4.58575 19.4141C5.04247 19.8709 5.69165 20.0789 6.32876 19.9727L9.32876 19.4727C9.73994 19.4042 10.1194 19.2089 10.4142 18.9141L19.0606 10.2677C20.0369 9.29138 20.0369 7.70847 19.0606 6.73216L17.2677 4.93926L15.8535 6.35348L17.6464 8.14637C17.8417 8.34163 17.8417 8.65821 17.6464 8.85348L16.4571 10.0428L13.9571 7.54282L15.1464 6.35347C15.3417 6.15821 15.6583 6.15821 15.8535 6.35348L17.2677 4.93926C16.2914 3.96296 14.7085 3.96295 13.7322 4.93926L5.08575 13.5857C4.791 13.8805 4.59571 14.2599 4.52718 14.6711L4.02718 17.6711ZM12.5429 8.95703L15.0429 11.457L8.99996 17.4999L8.08548 17.6523L5.99996 17.9999L6.34755 15.9144L6.49996 14.9999L12.5429 8.95703Z" fill="black" fill-opacity="0.9"/>
</svg>
