<svg width="24" height="24" viewBox="0 0 24 24" fill="none" xmlns="http://www.w3.org/2000/svg">
<path d="M9.075 2.95001C9.19926 2.95001 9.3 3.05075 9.3 3.17501V4.75001H14.7V3.17501C14.7 3.05075 14.8007 2.95001 14.925 2.95001H16.275C16.3993 2.95001 16.5 3.05075 16.5 3.17501V4.75001H18.3C19.7912 4.75001 21 5.95884 21 7.45001V17.35C21 18.8412 19.7912 20.05 18.3 20.05H5.7C4.20883 20.05 3 18.8412 3 17.35V7.45001C3 5.95884 4.20883 4.75001 5.7 4.75001H7.5V3.17501C7.5 3.05075 7.60074 2.95001 7.725 2.95001H9.075ZM14.7 6.55001H9.3V8.12501C9.3 8.24928 9.19926 8.35001 9.075 8.35001H7.725C7.60074 8.35001 7.5 8.24928 7.5 8.12501V6.55001H5.7C5.20294 6.55001 4.8 6.95296 4.8 7.45001V9.70001H19.2V7.45001C19.2 6.95296 18.7971 6.55001 18.3 6.55001H16.5V8.12501C16.5 8.24928 16.3993 8.35001 16.275 8.35001H14.925C14.8007 8.35001 14.7 8.24928 14.7 8.12501V6.55001ZM4.8 11.5V17.35C4.8 17.8471 5.20294 18.25 5.7 18.25H18.3C18.7971 18.25 19.2 17.8471 19.2 17.35V11.5H4.8Z" fill="black"/>
</svg>
