<svg width="21" height="21" viewBox="0 0 21 21" fill="none" xmlns="http://www.w3.org/2000/svg">
<g clip-path="url(#clip0_1_2639)">
<path d="M20.4895 10.6871C20.4895 9.8677 20.4214 9.26977 20.2742 8.64969H10.6992V12.348H16.3195C16.2062 13.2671 15.5943 14.6512 14.2346 15.5813L14.2155 15.7051L17.2429 17.9969L17.4527 18.0174C19.3789 16.2789 20.4895 13.7211 20.4895 10.6871Z" fill="#4285F4"/>
<path d="M10.6993 20.4314C13.4527 20.4314 15.7643 19.5455 17.4527 18.0175L14.2346 15.5814C13.3734 16.1682 12.2176 16.5779 10.6993 16.5779C8.00242 16.5779 5.71352 14.8395 4.89759 12.4367L4.77799 12.4466L1.63003 14.8273L1.58887 14.9392C3.26588 18.1946 6.7106 20.4314 10.6993 20.4314Z" fill="#34A853"/>
<path d="M4.89748 12.4367C4.68219 11.8167 4.55759 11.1522 4.55759 10.4657C4.55759 9.77918 4.68219 9.11483 4.88615 8.49475L4.88045 8.36269L1.69304 5.94376L1.58876 5.99223C0.897576 7.34315 0.500977 8.86017 0.500977 10.4657C0.500977 12.0713 0.897576 13.5883 1.58876 14.9392L4.89748 12.4367Z" fill="#FBBC05"/>
<path d="M10.6993 4.35336C12.6142 4.35336 13.906 5.16168 14.6425 5.83718L17.5207 3.09107C15.753 1.4855 13.4527 0.5 10.6993 0.5C6.7106 0.5 3.26588 2.73672 1.58887 5.99214L4.88626 8.49466C5.71352 6.09183 8.00242 4.35336 10.6993 4.35336Z" fill="#EB4335"/>
</g>
<defs>
<clipPath id="clip0_1_2639">
<rect width="20" height="20" fill="white" transform="translate(0.5 0.5)"/>
</clipPath>
</defs>
</svg>
